<svg width="156" height="120" viewBox="0 0 156 120" fill="none" xmlns="http://www.w3.org/2000/svg">
<circle cx="6" cy="6" r="6" fill="#86BAF3"/>
<circle cx="6" cy="6" r="6" fill="#86BAF3"/>
<circle cx="6" cy="42" r="6" fill="#86BAF3"/>
<circle cx="6" cy="78" r="6" fill="#86BAF3"/>
<circle cx="6" cy="114" r="6" fill="#86BAF3"/>
<circle cx="78" cy="6" r="6" fill="#86BAF3"/>
<circle cx="78" cy="6" r="6" fill="#86BAF3"/>
<circle cx="78" cy="42" r="6" fill="#86BAF3"/>
<circle cx="78" cy="78" r="6" fill="#86BAF3"/>
<circle cx="78" cy="114" r="6" fill="#86BAF3"/>
<circle cx="42" cy="6" r="6" fill="#86BAF3"/>
<circle cx="42" cy="6" r="6" fill="#86BAF3"/>
<circle cx="42" cy="42" r="6" fill="#86BAF3"/>
<circle cx="42" cy="78" r="6" fill="#86BAF3"/>
<circle cx="42" cy="114" r="6" fill="#86BAF3"/>
<circle cx="114" cy="6" r="6" fill="#86BAF3"/>
<circle cx="150" cy="6" r="6" fill="#86BAF3"/>
<circle cx="114" cy="6" r="6" fill="#86BAF3"/>
<circle cx="150" cy="6" r="6" fill="#86BAF3"/>
<circle cx="114" cy="42" r="6" fill="#86BAF3"/>
<circle cx="150" cy="42" r="6" fill="#86BAF3"/>
<circle cx="114" cy="78" r="6" fill="#86BAF3"/>
<circle cx="150" cy="78" r="6" fill="#86BAF3"/>
<circle cx="114" cy="114" r="6" fill="#86BAF3"/>
<circle cx="150" cy="114" r="6" fill="#86BAF3"/>
</svg>
